# Blender 3.6.23
# www.blender.org
mtllib cubonum.mtl
g Cube_Mesh
v -1.000000 -1.000000 1.000000
v -1.000000 -1.000000 -1.000000
v -1.000000 1.000000 1.000000
v -1.000000 1.000000 -1.000000
v 1.000000 -1.000000 1.000000
v 1.000000 -1.000000 -1.000000
v 1.000000 1.000000 1.000000
v 1.000000 1.000000 -1.000000
vn -0.0000 -0.0000 1.0000
vn -0.0000 1.0000 -0.0000
vn 1.0000 -0.0000 -0.0000
vn -0.0000 -0.0000 -1.0000
vn -1.0000 -0.0000 -0.0000
vn -0.0000 -1.0000 -0.0000
vt 0.996094 0.341797
vt 0.753906 0.666016
vt 0.751953 0.341797
vt 0.748047 0.673828
vt 0.505859 1.000000
vt 0.507812 0.675781
vt -0.001953 0.666016
vt 0.246094 0.343750
vt 0.248047 0.666016
vt 0.496094 0.337891
vt 0.257812 0.667969
vt 0.251953 0.341797
vt 0.744141 0.333984
vt 0.503906 0.671875
vt 0.503906 0.341797
vt 0.744141 0.003906
vt 0.505859 0.333984
vt 0.507812 0.005859
vt 0.994141 0.664062
vt 0.746094 1.000000
vt 0.005859 0.343750
vt 0.498047 0.664062
vt 0.746094 0.666016
s 0
g off
g Cube_Material
usemtl Material
f 5/1/1 3/2/1 1/3/1
f 3/4/2 8/5/2 4/6/2
f 7/7/3 6/8/3 8/9/3
f 2/10/4 8/11/4 6/12/4
f 1/13/5 4/14/5 2/15/5
f 5/16/6 2/17/6 6/18/6
f 5/1/1 7/19/1 3/2/1
f 3/4/2 7/20/2 8/5/2
f 7/7/3 5/21/3 6/8/3
f 2/10/4 4/22/4 8/11/4
f 1/13/5 3/23/5 4/14/5
f 5/16/6 1/13/6 2/17/6
